<?xml version="1.0" encoding="utf-8"?>
<!-- Generator: Adobe Illustrator 16.0.0, SVG Export Plug-In . SVG Version: 6.00 Build 0)  -->
<!DOCTYPE svg PUBLIC "-//W3C//DTD SVG 1.1//EN" "http://www.w3.org/Graphics/SVG/1.1/DTD/svg11.dtd">
<svg version="1.1" id="Calque_1" xmlns="http://www.w3.org/2000/svg" xmlns:xlink="http://www.w3.org/1999/xlink" x="0px" y="0px"
	 width="960px" height="267.963px" viewBox="0 346.608 960 267.963" enable-background="new 0 346.608 960 267.963"
	 xml:space="preserve">
<rect x="0" y="372.435" display="none" width="960" height="242.136"/>
<g>
	<path fill="#DE2600" d="M103.903,456.33l25.678-52.753h41.92l-44.73,77.626l48.143,78.83h-44.129l-26.479-53.958l-26.678,53.758
		H35.704l45.934-78.828l-44.729-77.228H78.43L103.903,456.33z"/>
	<path fill="#FFFFFF" d="M242.307,517.51l1.003,5.616h0.604l1.003-5.217l31.091-114.333h38.108l-50.547,156.456h-39.313
		l-50.548-156.456h38.109L242.307,517.51z"/>
	<path fill="#FFFFFF" d="M362.656,559.833H326.35V403.778h36.306V559.833z"/>
	<path fill="#FFFFFF" d="M387.327,559.833V403.778h56.364c18.454,0,33.899,6.019,46.135,18.053
		c12.438,12.035,18.654,27.479,18.654,46.137v28.081c0,18.854-6.218,34.1-18.654,46.135c-12.436,12.035-27.681,18.053-46.135,18.053
		L387.327,559.833L387.327,559.833L387.327,559.833z M423.836,431.46v100.491h17.649c9.828,0,17.25-3.21,22.666-9.829
		c5.416-6.617,8.023-15.442,8.023-26.274v-28.282c0-10.832-2.607-19.457-8.023-26.076s-13.038-9.829-22.666-9.829L423.836,431.46
		L423.836,431.46L423.836,431.46z"/>
	<path fill="#FFFFFF" d="M626.627,493.037h-61.18v38.914h72.21v27.883H529.143V403.778h108.718v27.881h-72.411v33.498h61.18
		L626.627,493.037L626.627,493.037L626.627,493.037z"/>
	<path fill="#FFFFFF" d="M781.076,495.846c0,19.256-6.219,35.103-18.254,47.539c-12.035,12.436-28.082,18.652-47.738,18.652
		c-19.856,0-35.903-6.219-48.142-18.652c-12.233-12.438-18.453-28.283-18.453-47.539v-28.082c0-19.256,6.22-35.104,18.453-47.539
		c12.236-12.638,28.283-18.654,48.142-18.654c19.656,0,35.505,6.22,47.939,18.654c12.235,12.638,18.453,28.283,18.453,47.539
		L781.076,495.846L781.076,495.846L781.076,495.846z M744.772,467.564c0-11.233-2.607-20.46-8.023-27.48
		c-5.215-7.221-13.438-11.23-22.265-10.829c-9.829,0-17.451,3.608-22.466,10.631c-5.215,7.221-7.822,16.247-7.822,27.479v28.283
		c0,11.232,2.607,20.459,8.023,27.681c5.415,7.223,12.837,10.831,22.666,10.831c8.823,0.401,17.05-3.608,22.265-10.831
		c5.215-7.222,7.823-16.248,7.823-27.681L744.772,467.564L744.772,467.564L744.772,467.564z"/>
	<path fill="#FFFFFF" d="M882.775,518.512c0.401-4.813-1.806-9.628-5.616-12.637c-3.609-3.011-10.229-6.22-19.656-9.63
		c-19.857-6.219-34.5-12.838-43.93-20.059c-9.628-7.221-14.241-17.451-14.241-30.891c0-13.037,5.616-23.669,17.052-31.692
		c11.434-8.022,25.675-12.234,43.125-12.234c17.449,0,31.49,4.413,42.522,13.237c10.832,8.023,16.852,21.063,16.047,34.501
		l-0.2,0.604h-35.103c0.2-5.816-2.006-11.232-6.218-15.044c-4.213-3.813-10.029-5.816-17.451-5.816s-13.038,1.604-17.25,4.813
		c-4.013,2.608-6.219,7.224-6.219,12.035c0,4.613,2.406,8.625,6.219,11.032c4.212,2.607,12.034,6.219,23.468,10.431
		c17.854,5.217,31.091,11.837,40.117,19.457c9.026,7.822,13.438,18.453,13.438,31.895c0,13.841-5.416,24.472-16.047,32.294
		c-10.632,7.823-24.873,11.635-42.523,11.635c-17.852,0-33.097-4.413-45.936-13.239c-12.838-8.823-19.256-21.662-18.854-38.512
		l0.201-0.603h35.303c0,9.024,2.407,15.443,7.422,19.257c4.813,3.811,12.235,5.814,22.266,5.814c7.423,0,13.238-1.402,16.85-4.411
		C880.969,527.34,882.775,523.127,882.775,518.512z"/>
</g>
<g>
	<path fill="#E2E2E2" stroke="#D3D3D3" stroke-width="1.8369" d="M656.314,404.781c59.976-43.326,111.325,0,125.165,17.451
		c4.814,5.816,5.015,20.059-9.428,18.253c-4.212-0.401-7.622-2.605-10.631-4.413c-17.45-9.628-60.376-32.294-106.109-1.604
		c-11.232,5.416-13.439-6.02-11.032-14.845C646.084,413.005,651.5,408.993,656.314,404.781z"/>
	<path fill="#DE2600" d="M729.728,346.611c-31.692,0.2-66.192,19.657-76.021,57.97c0.803-0.603-0.804,0.603,0,0
		c59.975-43.729,115.938-0.603,129.576,17.051l0,0c-1.806-7.822-7.021-10.632-8.021-13.039
		c-4.413-10.229,15.445,9.026,19.855,18.054l7.823-1.604c-6.218-13.641-12.437-26.879-18.253-41.723
		C775.261,358.045,753.197,346.411,729.728,346.611z"/>
	
		<radialGradient id="SVGID_1_" cx="312.9568" cy="-97.4573" r="13.7435" gradientTransform="matrix(1.3078 0.004 0.0241 -1.2737 400.1671 313.1233)" gradientUnits="userSpaceOnUse">
		<stop  offset="0" style="stop-color:#FFFFFF"/>
		<stop  offset="1" style="stop-color:#DADADA"/>
	</radialGradient>
	<path fill="url(#SVGID_1_)" stroke="#D3D3D3" stroke-width="1.5419" d="M824.605,437.879c-0.401,9.628-8.425,17.448-18.053,17.25
		c-9.43,0.198-17.25-7.424-17.451-17.052c0-0.198,0-0.198,0-0.399c0.401-9.628,8.425-17.451,18.053-17.25
		c9.428-0.201,17.251,7.422,17.451,17.05C824.605,437.677,824.605,437.677,824.605,437.879z"/>
	<path fill="#AA0E19" d="M743.569,374.093c14.041,8.424,20.66,21.061,31.492,31.49l-0.201,0.804
		c-14.44-9.026-11.23-20.861-43.126-27.079c-16.646-2.81-10.229-7.422-2.808-8.826C735.144,369.277,738.554,371.083,743.569,374.093
		L743.569,374.093L743.569,374.093z"/>
	<path fill="#FFFFFF" d="M818.786,436.874c-0.199,6.819-5.815,12.235-12.638,12.035c-6.619,0-12.235-5.216-12.235-11.835v-0.2
		c0.2-6.818,5.817-12.234,12.639-12.033c6.619,0,12.234,5.215,12.234,11.834C818.786,436.675,818.786,436.675,818.786,436.874z"/>
	<path fill="#FFFFFF" d="M709.269,390.339c-14.041,0.2-29.888,5.416-47.539,20.46l0,0c-5.015,4.412-8.425,7.222-9.628,11.031
		c-0.401,1.807-0.602,3.61-0.401,5.416c20.061-13.438,44.73-18.854,68.603-14.844c20.259,3.209,36.306,11.835,45.131,16.852l0,0
		c2.207,1.401,4.813,2.605,7.422,3.407c0.201,0,0.201,0,0.401,0c0.803,0.201,1.806,0.201,2.809,0v-0.198
		c0-1.808-0.401-3.41-1.003-5.017l-0.201-0.2C766.435,415.813,740.36,389.937,709.269,390.339z"/>
</g>
</svg>
