<?xml version="1.0" encoding="utf-8"?>
<!-- Generator: Adobe Illustrator 19.2.1, SVG Export Plug-In . SVG Version: 6.00 Build 0)  -->
<svg version="1.1" id="Vrstva_1" xmlns="http://www.w3.org/2000/svg" xmlns:xlink="http://www.w3.org/1999/xlink" x="0px" y="0px"
	 viewBox="0 0 24 24" style="enable-background:new 0 0 24 24;" xml:space="preserve">
<style type="text/css">
	.st0{fill:#FFFFFF;}
</style>
<g>
	<g>
		<path class="st0" d="M18.6,14.1v4.1c0,1-0.4,1.9-1.1,2.6s-1.6,1.1-2.6,1.1H4.1c-1,0-1.9-0.4-2.6-1.1s-1.1-1.6-1.1-2.6V7.4
			c0-1,0.4-1.9,1.1-2.6s1.6-1.1,2.6-1.1h9.1c0.1,0,0.2,0,0.3,0.1s0.1,0.2,0.1,0.3V5c0,0.1,0,0.2-0.1,0.3c-0.1,0.1-0.2,0.1-0.3,0.1
			H4.1c-0.5,0-1,0.2-1.4,0.6S2.1,6.9,2.1,7.4v10.8c0,0.6,0.2,1.1,0.6,1.5s0.9,0.6,1.5,0.6H15c0.6,0,1.1-0.2,1.5-0.6s0.6-0.9,0.6-1.5
			v-4.1c0-0.1,0-0.2,0.1-0.3s0.2-0.1,0.3-0.1h0.8c0.1,0,0.2,0,0.3,0.1C18.6,13.8,18.6,13.9,18.6,14.1z M23.6,2.9v6.6
			c0,0.2-0.1,0.4-0.2,0.6c-0.2,0.2-0.4,0.2-0.6,0.2s-0.4-0.1-0.6-0.2l-2.3-2.3l-8.4,8.4c-0.1,0.1-0.2,0.1-0.3,0.1s-0.2,0-0.3-0.1
			l-1.5-1.5c-0.1-0.1-0.1-0.2-0.1-0.3s0-0.2,0.1-0.3l8.4-8.4l-2.3-2.3c-0.2-0.2-0.2-0.4-0.2-0.6s0.1-0.4,0.2-0.6
			C15.7,2,15.9,2,16.1,2h6.6c0.2,0,0.4,0.1,0.6,0.2C23.5,2.5,23.6,2.7,23.6,2.9z"/>
	</g>
</g>
</svg>
